<svg width="175" height="324" viewBox="0 0 175 324" fill="none" xmlns="http://www.w3.org/2000/svg">
<path d="M6.528 10.992C7.296 10.992 10.4 12.432 15.84 15.312H35.616L40.8 10.032C45.344 13.936 47.616 16.208 47.616 16.848C47.616 17.488 46.944 17.808 45.6 17.808H14.496C14.176 18 14.016 18.8 14.016 20.208V37.584C14.016 69.968 10.016 89.68 2.016 96.72C0.928 96.72 0.384 96.4 0.384 95.76C0.384 95.568 0.416 95.408 0.48 95.28C0.608 95.088 0.992 94.32 1.632 92.976C5.024 86.32 6.72 70.48 6.72 45.456V15.888L6.24 11.376C6.24 11.12 6.336 10.992 6.528 10.992ZM23.424 58.704H40.512V47.088H23.328L23.424 58.704ZM23.328 44.688H40.512V35.664C40.512 35.216 40.16 34.512 39.456 33.552H23.52C23.456 33.616 23.392 37.328 23.328 44.688ZM28.704 61.104H23.52C23.776 63.472 23.904 64.752 23.904 64.944C23.776 66.224 21.856 66.864 18.144 66.864C17.056 66.864 16.416 66.128 16.224 64.656L16.608 57.84V32.112L16.224 27.6C16.224 27.28 16.352 27.12 16.608 27.12L25.824 31.152H26.976C28.192 28.912 29.152 24.656 29.856 18.384C37.856 21.2 41.728 22.896 41.472 23.472C40.96 24.176 39.36 24.56 36.672 24.624L31.488 31.152H38.592L43.2 26.064C48.256 29.328 50.784 31.6 50.784 32.88L47.712 36.624V56.688C48.096 61.808 48.288 64.56 48.288 64.944C48.096 66.224 45.984 66.864 41.952 66.864C40.672 66.864 40.032 66.224 40.032 64.944C40.032 63.664 40.16 62.384 40.416 61.104H35.904V89.136C35.776 93.808 33.28 96.144 28.416 96.144L27.168 94.224C25.12 91.024 22.112 89.328 18.144 89.136C17.248 88.752 16.8 88.368 16.8 87.984C16.8 87.536 17.184 87.056 17.952 86.544L26.496 87.6C27.968 87.472 28.704 86.832 28.704 85.68V61.104ZM38.208 69.648C38.016 69.328 37.984 69.008 38.112 68.688C38.304 68.368 38.624 68.208 39.072 68.208C39.584 68.208 40.64 69.008 42.24 70.608C47.232 74.96 49.728 79.056 49.728 82.896C49.728 83.344 49.664 83.888 49.536 84.528C49.472 85.168 48.48 86.32 46.56 87.984C45.92 88.56 45.12 88.752 44.16 88.56C43.264 88.304 42.784 87.312 42.72 85.584C42.4 79.312 40.896 74 38.208 69.648ZM12.384 91.536C11.104 92.24 10.336 92.336 10.08 91.824C10.016 91.632 9.984 91.44 9.984 91.248C9.984 90.864 10.144 90.384 10.464 89.808C14.432 82.896 16.96 75.6 18.048 67.92C24.192 69.52 27.392 71.024 27.648 72.432L23.712 73.488C21.216 80.4 17.44 86.416 12.384 91.536ZM80.832 46.032H59.424V56.688H80.832V46.032ZM59.424 43.632H80.832V34.224C80.832 33.648 80.64 33.104 80.256 32.592H59.52C59.456 32.784 59.424 33.136 59.424 33.648V43.632ZM80.832 59.088H59.424V70.8H80.832V59.088ZM52.032 25.776C52.992 25.776 56.096 27.248 61.344 30.192H63.84L66.24 17.232H55.296C53.44 17.36 52.192 17.616 51.552 18C50.976 18.384 50.624 18.608 50.496 18.672L47.424 13.872C51.392 14.576 54.592 14.928 57.024 14.928H81.504L86.496 9.16799C90.016 12.24 92.192 14.544 93.024 16.08C93.024 16.848 92.16 17.232 90.432 17.232H73.824L68.16 30.192H79.2L84.192 25.104C89.504 28.048 92.16 30.16 92.16 31.44L88.704 35.184V69.744L89.28 75.696C89.088 76.976 86.752 77.616 82.272 77.616C81.056 77.616 80.448 76.976 80.448 75.696L80.736 73.2H59.616C59.616 73.392 59.616 73.584 59.616 73.776C59.616 76.336 57.728 77.616 53.952 77.616H53.664C52.448 77.616 51.84 76.944 51.84 75.6C51.84 75.152 51.968 73.52 52.224 70.704V30.672L51.744 26.16C51.744 25.904 51.84 25.776 52.032 25.776ZM87.264 85.296C90.272 87.088 91.968 88.528 92.352 89.616C92.544 90.192 92.64 90.832 92.64 91.536C92.64 92.304 92.512 93.328 92.256 94.608C92.064 95.888 91.648 96.528 91.008 96.528C89.152 96.528 86.656 94.48 83.52 90.384C80.448 86.352 76.32 82.96 71.136 80.208C70.624 79.568 70.368 79.152 70.368 78.96C70.368 78.32 70.752 78 71.52 78C73.824 78 79.072 80.432 87.264 85.296ZM45.12 96.144C44.864 96.208 44.672 96.24 44.544 96.24C44.032 96.24 43.776 95.952 43.776 95.376C43.776 94.672 44.128 93.968 44.832 93.264C51.936 88.4 57.44 82.96 61.344 76.944C66.144 79.824 68.864 82.32 69.504 84.432L64.992 83.856C58.08 90 51.456 94.096 45.12 96.144ZM51.936 193.68C52.256 197.904 52.416 200.56 52.416 201.648C52.416 203.312 50.112 204.144 45.504 204.144C44.416 204.144 43.776 203.376 43.584 201.84L44.064 193.68V179.856C34.784 188.112 22.592 194.576 7.488 199.248C6.144 199.568 5.472 199.44 5.472 198.864C5.472 197.648 6.208 196.72 7.68 196.08C20.544 190.256 30.912 183.152 38.784 174.768H16.8C14.88 174.832 13.344 175.088 12.192 175.536C11.104 175.984 10.432 176.208 10.176 176.208L5.568 171.696C5.376 171.504 5.28 171.248 5.28 170.928C5.28 170.608 5.536 170.512 6.048 170.64C9.76 171.28 14.24 171.632 19.488 171.696H44.064V167.376L43.584 162.576C43.712 162.384 43.872 162.288 44.064 162.288C44.064 162.288 44.224 162.288 44.544 162.288C50.688 162.672 54.112 163.408 54.816 164.496L51.84 167.664V171.696H76.416L82.08 165.072C88.16 170.448 91.2 173.424 91.2 174C91.2 174.512 90.464 174.768 88.992 174.768L52.8 174.864C64.32 183.184 77.28 188.816 91.68 191.76L85.536 199.92C73.184 194.992 61.984 187.856 51.936 178.512V193.68ZM58.176 142.608V133.2C58.176 132.368 57.984 131.696 57.6 131.184H38.112C38.048 131.376 38.016 131.856 38.016 132.624V142.608H58.176ZM30.048 124.56L40.032 129.072H42.144L45.792 115.536C45.92 115.152 46.144 114.96 46.464 114.96C53.312 117.52 56.736 119.344 56.736 120.432C56.736 120.752 56.128 121.04 54.912 121.296C53.76 121.552 53.088 122 52.896 122.64L47.04 129.072H57.216L61.44 123.408C67.2 126.48 70.08 128.816 70.08 130.416L65.952 134.736V154.704C66.336 158.992 66.528 161.68 66.528 162.768C66.528 164.304 64.224 165.072 59.616 165.072C59.168 165.072 58.72 164.816 58.272 164.304C57.824 163.728 57.632 162.992 57.696 162.096C57.824 161.2 57.952 160.144 58.08 158.928H38.208C38.464 161.424 38.592 162.704 38.592 162.768C38.592 164.304 36.288 165.072 31.68 165.072C30.4 165.072 29.76 164.464 29.76 163.248L30.24 154.608L30.144 129.552C30.144 128.144 30.08 127.12 29.952 126.48C29.824 125.84 29.76 125.36 29.76 125.04C29.76 124.72 29.856 124.56 30.048 124.56ZM58.176 145.008H38.016V156.816H58.176V145.008ZM5.184 123.696C5.184 122.928 5.44 122.544 5.952 122.544C6.016 122.544 6.08 122.544 6.144 122.544C16.448 125.104 22.88 129.232 25.44 134.928C25.504 135.12 25.536 135.344 25.536 135.6C25.536 136.624 24.736 138.096 23.136 140.016C22.752 140.464 22.24 140.688 21.6 140.688C21.024 140.688 20.224 139.92 19.2 138.384C16.704 133.52 12.256 128.816 5.856 124.272C5.408 123.952 5.184 123.76 5.184 123.696ZM24.288 147.312C25.056 146.736 25.6 146.448 25.92 146.448C26.304 146.448 26.656 146.48 26.976 146.544C27.296 146.544 27.488 146.704 27.552 147.024C27.616 147.28 27.68 147.888 27.744 148.848C22.048 155.12 17.312 159.504 13.536 162C12.64 165.264 12.128 166.928 12 166.992C11.936 166.992 11.872 166.992 11.808 166.992C11.744 166.992 11.68 166.96 11.616 166.896C9.76 166.704 7.36 163.76 4.416 158.064C13.504 154.032 20.128 150.448 24.288 147.312ZM67.008 147.696C67.008 146.736 67.328 146.32 67.968 146.448C80.256 148.624 87.648 152.592 90.144 158.352C90.272 158.608 90.336 158.864 90.336 159.12C90.336 160.272 89.568 161.744 88.032 163.536C87.648 164.048 87.136 164.304 86.496 164.304C85.92 164.304 85.088 163.568 84 162.096C82.144 158 76.704 153.36 67.68 148.176C67.232 147.92 67.008 147.76 67.008 147.696ZM70.56 140.4C69.152 140.272 68.448 139.856 68.448 139.152C68.448 138.448 68.992 137.744 70.08 137.04C75.008 132.176 78.976 127.472 81.984 122.928C88.448 126.32 91.488 129.392 91.104 132.144L85.632 131.664C81.408 135.248 76.384 138.16 70.56 140.4ZM15.648 276.432L9.984 277.104C6.912 275.12 5.376 273.808 5.376 273.168C5.376 273.168 5.472 273.168 5.664 273.168C5.92 273.168 6.944 273.296 8.736 273.552C10.592 273.808 13.952 273.968 18.816 274.032H58.08V267.12L57.6 262.8C57.536 262.352 57.856 262.128 58.56 262.128C59.264 262.128 61.12 262.384 64.128 262.896C67.2 263.344 68.736 263.824 68.736 264.336C68.736 264.656 68.224 265.104 67.2 265.68C66.24 266.192 65.76 266.768 65.76 267.408V274.032H77.952L82.464 268.08C88.032 272.176 90.816 274.448 90.816 274.896V275.664C90.816 276.176 90.048 276.432 88.512 276.432H65.76V304.848C65.824 309.712 62.592 312.144 56.064 312.144L52.32 309.168C49.248 306.736 44.448 305.392 37.92 305.136C37.024 304.752 36.576 304.368 36.576 303.984C36.576 303.536 36.96 303.056 37.728 302.544L53.664 304.08C56.608 303.952 58.08 303.248 58.08 301.968V276.432H15.648ZM18.528 282.48C18.208 282.352 17.92 281.968 17.664 281.328C17.28 280.368 17.888 279.888 19.488 279.888C20.064 279.888 21.632 280.304 24.192 281.136C34.816 284.144 40.128 288.464 40.128 294.096C40.128 295.312 39.84 296.56 39.264 297.84C38.752 299.056 38.048 299.664 37.152 299.664C36.256 299.664 35.264 298.768 34.176 296.976C30.208 289.872 24.992 285.04 18.528 282.48ZM11.616 260.208L5.952 260.88L3.84 257.136L12.096 257.904H44.064V242.64H21.792L16.128 243.312C14.016 240.944 12.96 239.664 12.96 239.472L21.984 240.336H44.064V229.968L43.584 225.264C43.584 225.136 43.904 225.072 44.544 225.072C51.264 225.072 54.624 225.776 54.624 227.184C54.624 227.504 54.144 227.952 53.184 228.528C52.224 229.04 51.744 229.616 51.744 230.256V240.336H68.736L73.92 233.808C79.744 237.776 82.656 240.208 82.656 241.104C82.656 242.128 81.888 242.64 80.352 242.64H51.744V257.904H77.664C77.728 257.904 77.888 257.84 78.144 257.712L83.424 251.376C89.248 256.176 92.16 258.768 92.16 259.152C92.16 259.856 91.392 260.208 89.856 260.208H11.616Z" fill="#333333"/>
<path d="M156.072 62.256C156.296 62.4267 156.408 62.5547 156.408 62.64C156.408 62.7787 156.307 62.8853 156.104 62.96C155.677 63.12 155.005 63.2693 154.088 63.408C153.171 63.536 152.301 63.6 151.48 63.6C150.659 63.6 149.939 63.5787 149.32 63.536C148.712 63.4827 148.152 63.3067 147.64 63.008C147.128 62.6987 146.771 62.3947 146.568 62.096C146.376 61.7973 146.28 61.5413 146.28 61.328C146.28 60.56 146.392 59.9573 146.616 59.52C146.979 58.8053 147.373 58.288 147.8 57.968C147.907 57.8827 147.997 57.84 148.072 57.84C148.147 57.84 148.211 57.8667 148.264 57.92C148.317 57.9733 148.344 58.032 148.344 58.096C148.344 58.1493 148.248 58.24 148.056 58.368C147.395 58.816 147.064 59.5947 147.064 60.704C147.064 61.2053 147.267 61.5733 147.672 61.808C148.227 62.16 149.304 62.336 150.904 62.336C152.504 62.336 153.432 62.256 153.688 62.096C153.795 62.032 153.917 61.952 154.056 61.856C154.195 61.7493 154.349 61.696 154.52 61.696H154.536C155.069 61.696 155.581 61.8827 156.072 62.256ZM152.264 54.272C151.72 54.2933 151.091 54.3093 150.376 54.32C148.861 54.16 147.805 53.7387 147.208 53.056C147.112 52.9493 147.064 52.8533 147.064 52.768C147.064 52.672 147.091 52.6027 147.144 52.56C147.197 52.5067 147.256 52.48 147.32 52.48C147.395 52.48 147.48 52.512 147.576 52.576C148.387 53.056 149.443 53.296 150.744 53.296C151.469 53.296 152.173 53.1733 152.856 52.928C153.123 52.832 153.4 52.784 153.688 52.784C153.976 52.784 154.237 52.9013 154.472 53.136C154.717 53.3707 154.84 53.6107 154.84 53.856C154.84 54.0053 154.696 54.1013 154.408 54.144L150.216 56.464C150.024 56.5707 149.901 56.624 149.848 56.624C149.709 56.624 149.635 56.5653 149.624 56.448C149.624 56.4053 149.667 56.352 149.752 56.288L150.712 55.552C151.555 54.912 152.072 54.4853 152.264 54.272ZM156.072 85.256C156.296 85.4267 156.408 85.5547 156.408 85.64C156.408 85.7787 156.307 85.8853 156.104 85.96C155.677 86.12 155.005 86.2693 154.088 86.408C153.171 86.536 152.301 86.6 151.48 86.6C150.659 86.6 149.939 86.5787 149.32 86.536C148.712 86.4827 148.152 86.3067 147.64 86.008C147.128 85.6987 146.771 85.3947 146.568 85.096C146.376 84.7973 146.28 84.5413 146.28 84.328C146.28 83.56 146.392 82.9573 146.616 82.52C146.979 81.8053 147.373 81.288 147.8 80.968C147.907 80.8827 147.997 80.84 148.072 80.84C148.147 80.84 148.211 80.8667 148.264 80.92C148.317 80.9733 148.344 81.032 148.344 81.096C148.344 81.1493 148.248 81.24 148.056 81.368C147.395 81.816 147.064 82.5947 147.064 83.704C147.064 84.2053 147.267 84.5733 147.672 84.808C148.227 85.16 149.304 85.336 150.904 85.336C152.504 85.336 153.432 85.256 153.688 85.096C153.795 85.032 153.917 84.952 154.056 84.856C154.195 84.7493 154.349 84.696 154.52 84.696H154.536C155.069 84.696 155.581 84.8827 156.072 85.256ZM152.264 77.272C151.72 77.2933 151.091 77.3093 150.376 77.32C148.861 77.16 147.805 76.7387 147.208 76.056C147.112 75.9493 147.064 75.8533 147.064 75.768C147.064 75.672 147.091 75.6027 147.144 75.56C147.197 75.5067 147.256 75.48 147.32 75.48C147.395 75.48 147.48 75.512 147.576 75.576C148.387 76.056 149.443 76.296 150.744 76.296C151.469 76.296 152.173 76.1733 152.856 75.928C153.123 75.832 153.4 75.784 153.688 75.784C153.976 75.784 154.237 75.9013 154.472 76.136C154.717 76.3707 154.84 76.6107 154.84 76.856C154.84 77.0053 154.696 77.1013 154.408 77.144L150.216 79.464C150.024 79.5707 149.901 79.624 149.848 79.624C149.709 79.624 149.635 79.5653 149.624 79.448C149.624 79.4053 149.667 79.352 149.752 79.288L150.712 78.552C151.555 77.912 152.072 77.4853 152.264 77.272ZM149.096 103.584C150.429 102.933 151.448 102.603 152.152 102.592C154.851 102.592 156.2 103.579 156.2 105.552C156.2 106.907 155.677 107.952 154.632 108.688C153.171 109.733 151.235 110.256 148.824 110.256H148.392C148.285 110.213 148.232 110.155 148.232 110.08C148.221 109.984 148.28 109.925 148.408 109.904C150.893 109.509 152.648 108.875 153.672 108C154.387 107.403 154.744 106.603 154.744 105.6C154.744 104.288 153.789 103.632 151.88 103.632C150.664 103.632 149.427 104.107 148.168 105.056C147.891 105.291 147.629 105.616 147.384 106.032C146.765 106.747 146.344 107.163 146.12 107.28C146.013 107.333 145.928 107.36 145.864 107.36C145.576 107.36 145.432 107.189 145.432 106.848C145.432 106.72 145.469 106.491 145.544 106.16C145.619 105.829 145.704 105.605 145.8 105.488C145.875 105.445 147.896 103.195 151.864 98.736L148.776 99.6C148.616 99.6213 148.472 99.6747 148.344 99.76C148.227 99.8347 148.131 99.872 148.056 99.872C147.981 99.872 147.864 99.856 147.704 99.824C147.555 99.7813 147.336 99.5627 147.048 99.168C146.76 98.7733 146.616 98.4107 146.616 98.08C146.616 97.8987 146.691 97.808 146.84 97.808C146.936 97.808 147.117 97.9467 147.384 98.224C147.661 98.5013 148.003 98.64 148.408 98.64C148.824 98.64 149.523 98.5547 150.504 98.384C151.485 98.2027 152.067 98.08 152.248 98.016C152.355 97.8027 152.451 97.6587 152.536 97.584C153.421 98.1387 153.864 98.512 153.864 98.704C153.864 98.8533 153.736 98.9867 153.48 99.104C153.224 99.2107 153.043 99.312 152.936 99.408C151.432 100.773 150.152 102.165 149.096 103.584Z" fill="#333333"/>
<path d="M135.672 53.2V40.384H142.28V41.392H136.68V53.2H135.672Z" fill="#333333"/>
<path d="M166.328 110.104V122.92H159.72V121.912H165.32V110.104H166.328Z" fill="#333333"/>
<path d="M151.224 144.976C151.352 144.976 151.421 145.051 151.432 145.2C151.432 145.253 151.299 145.392 151.032 145.616C150.595 146.043 150.376 146.437 150.376 146.8C150.376 147.835 151.101 148.352 152.552 148.352L154.264 148.224C154.424 148.224 154.627 148.165 154.872 148.048C155.128 147.92 155.309 147.856 155.416 147.856H155.624C155.848 147.867 156.147 147.973 156.52 148.176C156.893 148.379 157.08 148.565 157.08 148.736C157.08 148.896 156.984 149.019 156.792 149.104C156.6 149.189 156.131 149.275 155.384 149.36C154.637 149.445 154.125 149.488 153.848 149.488C153.571 149.488 153.16 149.477 152.616 149.456C151.144 149.392 150.173 148.933 149.704 148.08C149.565 147.824 149.496 147.525 149.496 147.184C149.496 146.843 149.656 146.443 149.976 145.984C150.307 145.525 150.648 145.211 151 145.04C151.085 144.997 151.16 144.976 151.224 144.976ZM146.488 148.544C146.627 148.8 146.696 149.115 146.696 149.488C146.696 150.075 146.493 150.368 146.088 150.368C145.917 150.357 145.709 150.192 145.464 149.872C145.229 149.552 145.053 149.131 144.936 148.608C144.819 148.085 144.76 147.365 144.76 146.448C144.76 145.52 144.781 144.72 144.824 144.048C144.877 143.376 145.027 142.56 145.272 141.6C145.528 140.629 145.656 139.968 145.656 139.616C145.656 139.264 145.501 138.928 145.192 138.608C145.064 138.469 145.005 138.373 145.016 138.32C145.016 138.224 145.091 138.176 145.24 138.176C145.4 138.176 145.624 138.256 145.912 138.416C146.68 138.864 147.064 139.344 147.064 139.856C147.064 139.899 147.059 139.947 147.048 140L146.28 141.824C145.917 142.859 145.736 143.824 145.736 144.72C145.736 145.616 145.816 146.432 145.976 147.168C147.021 145.44 147.624 144.549 147.784 144.496C147.816 144.485 147.848 144.48 147.88 144.48C147.976 144.48 148.019 144.533 148.008 144.64C148.008 144.736 147.891 144.976 147.656 145.36C146.899 146.64 146.52 147.648 146.52 148.384C146.52 148.437 146.509 148.491 146.488 148.544ZM154.168 140.816C153.219 141.008 152.365 141.104 151.608 141.104C150.851 141.104 150.253 140.864 149.816 140.384C149.709 140.267 149.656 140.208 149.656 140.208C149.656 140.208 149.688 140.181 149.752 140.128C149.816 140.064 149.885 140.032 149.96 140.032C150.035 140.032 150.115 140.069 150.2 140.144C150.371 140.283 150.856 140.352 151.656 140.352C152.467 140.352 153.208 140.208 153.88 139.92C154.552 139.632 154.931 139.488 155.016 139.488C155.261 139.488 155.512 139.589 155.768 139.792C156.035 139.995 156.173 140.208 156.184 140.432C156.184 140.581 156.045 140.693 155.768 140.768L153.224 142.384L152.856 142.592C152.717 142.592 152.643 142.555 152.632 142.48C152.632 142.395 152.669 142.325 152.744 142.272C153.373 141.803 153.848 141.317 154.168 140.816ZM151.656 172.28C151.709 172.984 151.736 173.427 151.736 173.608C151.736 173.885 151.352 174.024 150.584 174.024C150.403 174.024 150.296 173.896 150.264 173.64L150.344 172.28V169.976C148.797 171.352 146.765 172.429 144.248 173.208C144.024 173.261 143.912 173.24 143.912 173.144C143.912 172.941 144.035 172.787 144.28 172.68C146.424 171.709 148.152 170.525 149.464 169.128H145.8C145.48 169.139 145.224 169.181 145.032 169.256C144.851 169.331 144.739 169.368 144.696 169.368L143.928 168.616C143.896 168.584 143.88 168.541 143.88 168.488C143.88 168.435 143.923 168.419 144.008 168.44C144.627 168.547 145.373 168.605 146.248 168.616H150.344V167.896L150.264 167.096C150.285 167.064 150.312 167.048 150.344 167.048C150.344 167.048 150.371 167.048 150.424 167.048C151.448 167.112 152.019 167.235 152.136 167.416L151.64 167.944V168.616H155.736L156.68 167.512C157.693 168.408 158.2 168.904 158.2 169C158.2 169.085 158.077 169.128 157.832 169.128L151.8 169.144C153.72 170.531 155.88 171.469 158.28 171.96L157.256 173.32C155.197 172.499 153.331 171.309 151.656 169.752V172.28ZM152.696 163.768V162.2C152.696 162.061 152.664 161.949 152.6 161.864H149.352C149.341 161.896 149.336 161.976 149.336 162.104V163.768H152.696ZM148.008 160.76L149.672 161.512H150.024L150.632 159.256C150.653 159.192 150.691 159.16 150.744 159.16C151.885 159.587 152.456 159.891 152.456 160.072C152.456 160.125 152.355 160.173 152.152 160.216C151.96 160.259 151.848 160.333 151.816 160.44L150.84 161.512H152.536L153.24 160.568C154.2 161.08 154.68 161.469 154.68 161.736L153.992 162.456V165.784C154.056 166.499 154.088 166.947 154.088 167.128C154.088 167.384 153.704 167.512 152.936 167.512C152.861 167.512 152.787 167.469 152.712 167.384C152.637 167.288 152.605 167.165 152.616 167.016C152.637 166.867 152.659 166.691 152.68 166.488H149.368C149.411 166.904 149.432 167.117 149.432 167.128C149.432 167.384 149.048 167.512 148.28 167.512C148.067 167.512 147.96 167.411 147.96 167.208L148.04 165.768L148.024 161.592C148.024 161.357 148.013 161.187 147.992 161.08C147.971 160.973 147.96 160.893 147.96 160.84C147.96 160.787 147.976 160.76 148.008 160.76ZM152.696 164.168H149.336V166.136H152.696V164.168ZM143.864 160.616C143.864 160.488 143.907 160.424 143.992 160.424C144.003 160.424 144.013 160.424 144.024 160.424C145.741 160.851 146.813 161.539 147.24 162.488C147.251 162.52 147.256 162.557 147.256 162.6C147.256 162.771 147.123 163.016 146.856 163.336C146.792 163.411 146.707 163.448 146.6 163.448C146.504 163.448 146.371 163.32 146.2 163.064C145.784 162.253 145.043 161.469 143.976 160.712C143.901 160.659 143.864 160.627 143.864 160.616ZM147.048 164.552C147.176 164.456 147.267 164.408 147.32 164.408C147.384 164.408 147.443 164.413 147.496 164.424C147.549 164.424 147.581 164.451 147.592 164.504C147.603 164.547 147.613 164.648 147.624 164.808C146.675 165.853 145.885 166.584 145.256 167C145.107 167.544 145.021 167.821 145 167.832C144.989 167.832 144.979 167.832 144.968 167.832C144.957 167.832 144.947 167.827 144.936 167.816C144.627 167.784 144.227 167.293 143.736 166.344C145.251 165.672 146.355 165.075 147.048 164.552ZM154.168 164.616C154.168 164.456 154.221 164.387 154.328 164.408C156.376 164.771 157.608 165.432 158.024 166.392C158.045 166.435 158.056 166.477 158.056 166.52C158.056 166.712 157.928 166.957 157.672 167.256C157.608 167.341 157.523 167.384 157.416 167.384C157.32 167.384 157.181 167.261 157 167.016C156.691 166.333 155.784 165.56 154.28 164.696C154.205 164.653 154.168 164.627 154.168 164.616ZM154.76 163.4C154.525 163.379 154.408 163.309 154.408 163.192C154.408 163.075 154.499 162.957 154.68 162.84C155.501 162.029 156.163 161.245 156.664 160.488C157.741 161.053 158.248 161.565 158.184 162.024L157.272 161.944C156.568 162.541 155.731 163.027 154.76 163.4ZM147.432 187.136C147.432 185.237 147.171 184.288 146.648 184.288C146.403 184.288 146.248 184.224 146.184 184.096C146.163 184.053 146.152 184.016 146.152 183.984C146.152 183.803 146.285 183.712 146.552 183.712C146.829 183.712 147.16 183.776 147.544 183.904C148.493 184.235 148.968 184.677 148.968 185.232C148.968 185.307 148.931 185.413 148.856 185.552C148.781 185.691 148.733 185.936 148.712 186.288C148.381 190.192 148.211 192.251 148.2 192.464C148.2 194.203 149.144 195.072 151.032 195.072C152.92 195.072 154.317 194.197 155.224 192.448C155.725 191.157 156.072 190.512 156.264 190.512C156.371 190.512 156.429 190.597 156.44 190.768C156.44 191.131 156.232 191.867 155.816 192.976C154.941 195.184 153.453 196.288 151.352 196.288H151.336C148.595 196.288 147.224 195.035 147.224 192.528V192.336L147.4 188.24C147.421 187.739 147.432 187.371 147.432 187.136ZM154.456 214.232L154.088 214.264C153.928 214.243 153.837 214.2 153.816 214.136L153.8 214.12C153.843 214.109 153.875 214.051 153.896 213.944C153.907 213.837 154.152 213.784 154.632 213.784C155.112 213.784 155.608 213.8 156.12 213.832C156.12 213.789 156.12 213.747 156.12 213.704C156.12 213.032 155.891 212.243 155.432 211.336C155.037 210.6 154.253 209.848 153.08 209.08C152.973 209.005 152.92 208.941 152.92 208.888C152.92 208.835 152.952 208.765 153.016 208.68C153.08 208.584 153.155 208.536 153.24 208.536C153.325 208.536 153.437 208.579 153.576 208.664C154.867 209.432 155.832 210.269 156.472 211.176C157.325 212.712 157.752 213.859 157.752 214.616C157.752 214.659 157.747 214.728 157.736 214.824C157.736 214.92 157.651 215.085 157.48 215.32C157.32 215.555 157.107 215.683 156.84 215.704C156.563 215.704 156.355 215.421 156.216 214.856C156.259 214.493 155.672 214.285 154.456 214.232ZM146.824 210.376C146.813 211.933 146.808 212.979 146.808 213.512C146.808 214.771 147.293 215.789 148.264 216.568C148.947 214.915 149.517 213.736 149.976 213.032C150.168 212.733 150.323 212.579 150.44 212.568C150.568 212.557 150.632 212.621 150.632 212.76C150.632 212.888 150.536 213.155 150.344 213.56C149.565 215.224 149.187 216.344 149.208 216.92V216.952L149.464 217.48C149.635 217.832 149.725 218.067 149.736 218.184C149.747 218.291 149.683 218.403 149.544 218.52C149.405 218.627 149.261 218.685 149.112 218.696C148.717 218.696 148.328 218.547 147.944 218.248C146.579 217.117 145.869 215.133 145.816 212.296C145.795 211.475 145.773 210.648 145.752 209.816L145.72 209.672C145.656 209.16 145.464 208.776 145.144 208.52C144.888 208.296 144.76 208.147 144.76 208.072C144.771 207.901 144.947 207.816 145.288 207.816C145.629 207.816 146.035 208.051 146.504 208.52C146.76 208.819 146.888 209.117 146.888 209.416L146.824 210.376ZM153.8 231.888C154.205 235.173 154.408 237.173 154.408 237.888C154.408 238.592 154.312 239.211 154.12 239.744C153.48 241.483 152.125 242.352 150.056 242.352C148.701 242.352 147.608 241.925 146.776 241.072C146.093 240.368 145.752 239.387 145.752 238.128C145.752 236.005 146.84 233.787 149.016 231.472C148.323 231.899 147.736 232.261 147.256 232.56C146.787 232.848 146.419 232.997 146.152 233.008C146.003 232.997 145.752 232.805 145.4 232.432C145.059 232.048 144.813 231.669 144.664 231.296C144.621 231.189 144.605 231.109 144.616 231.056C144.616 230.917 144.68 230.848 144.808 230.848C144.936 230.848 145.123 230.965 145.368 231.2C145.613 231.435 145.896 231.568 146.216 231.6C146.664 231.568 147.037 231.477 147.336 231.328C147.645 231.168 147.981 230.955 148.344 230.688C148.717 230.421 148.936 230.213 149 230.064L149.064 229.904L149.224 229.984C149.971 230.432 150.419 230.731 150.568 230.88C150.717 231.019 150.792 231.12 150.792 231.184V231.2C150.792 231.381 150.675 231.472 150.44 231.472C150.408 231.472 150.349 231.467 150.264 231.456C148.067 233.888 146.968 235.808 146.968 237.216C146.968 238.613 147.101 239.499 147.368 239.872C147.816 240.501 148.376 240.875 149.048 240.992C149.347 241.045 149.645 241.072 149.944 241.072C150.68 241.072 151.336 240.901 151.912 240.56C152.488 240.219 152.899 239.717 153.144 239.056C153.4 238.384 153.528 237.328 153.528 235.888C153.528 234.448 153.293 232.757 152.824 230.816C152.739 230.603 152.696 230.427 152.696 230.288C152.696 229.979 152.899 229.824 153.304 229.824C153.517 229.824 153.72 229.915 153.912 230.096C154.115 230.267 154.227 230.389 154.248 230.464C154.28 230.539 154.339 230.741 154.424 231.072C154.52 231.403 154.696 231.877 154.952 232.496C155.219 233.104 155.645 233.749 156.232 234.432C156.829 235.115 157.16 235.52 157.224 235.648C157.299 235.776 157.336 235.931 157.336 236.112C157.336 236.283 157.299 236.512 157.224 236.8C157.149 237.077 157 237.248 156.776 237.312H156.696C156.557 237.312 156.163 236.672 155.512 235.392C155.224 234.837 154.856 234 154.408 232.88C154.205 232.549 154.003 232.219 153.8 231.888ZM147.208 252.424C147.208 252.285 147.315 252.216 147.528 252.216C147.741 252.216 148.141 252.312 148.728 252.504C149.315 252.685 149.64 252.851 149.704 253C149.779 253.149 149.816 253.277 149.816 253.384C149.816 253.48 149.789 253.597 149.736 253.736C149.683 253.864 149.656 254.259 149.656 254.92C149.656 256.712 149.816 257.747 150.136 258.024C152.269 257.075 153.459 256.499 153.704 256.296C153.949 256.093 154.072 255.944 154.072 255.848C154.072 255.752 153.955 255.645 153.72 255.528C153.485 255.4 153.352 255.32 153.32 255.288C153.288 255.245 153.272 255.203 153.272 255.16C153.272 255.107 153.304 255.053 153.368 255C153.432 254.947 153.517 254.92 153.624 254.92C153.741 254.92 153.928 254.984 154.184 255.112C154.76 255.4 155.24 255.853 155.624 256.472C155.731 256.643 155.784 256.787 155.784 256.904C155.784 257.117 155.56 257.24 155.112 257.272L154.728 257.336C151.933 258.051 149.992 258.84 148.904 259.704C147.827 260.568 147.288 261.288 147.288 261.864C147.288 262.301 147.4 262.632 147.624 262.856C148.125 263.443 149.272 263.736 151.064 263.736C151.096 263.736 151.128 263.736 151.16 263.736C152.333 263.736 153.208 263.619 153.784 263.384C154.019 263.288 154.173 263.24 154.248 263.24C154.323 263.24 154.365 263.24 154.376 263.24C154.835 263.24 155.283 263.395 155.72 263.704C155.965 263.875 156.088 264.04 156.088 264.2C156.088 264.253 156.077 264.301 156.056 264.344C155.949 264.525 155.443 264.675 154.536 264.792C153.64 264.909 152.717 264.968 151.768 264.968C150.339 264.968 149.112 264.765 148.088 264.36C147.597 264.168 147.192 263.891 146.872 263.528C146.552 263.165 146.392 262.627 146.392 261.912C146.392 261.069 147.363 259.912 149.304 258.44C149.08 258.195 148.867 257.571 148.664 256.568C148.472 255.565 148.333 254.808 148.248 254.296C148.163 253.784 148.067 253.448 147.96 253.288C147.853 253.117 147.699 252.957 147.496 252.808C147.304 252.648 147.208 252.52 147.208 252.424ZM149.448 283.408C149.448 283.312 149.523 283.264 149.672 283.264C150.035 283.275 150.744 283.669 151.8 284.448C152.109 284.672 152.264 285.067 152.264 285.632C152.264 286.187 152.125 286.464 151.848 286.464C151.837 286.464 151.832 286.464 151.832 286.464C151.683 286.464 151.528 286.293 151.368 285.952C150.781 284.789 150.184 284.043 149.576 283.712C149.48 283.659 149.437 283.557 149.448 283.408ZM149.816 280.24L149.144 280.352C148.92 280.117 148.696 279.888 148.472 279.664L149.944 279.856H152.52V277.584H150.248L149.304 277.696C149.155 277.44 149.011 277.216 148.872 277.024L150.856 277.2H152.52V275.504L152.44 274.8V274.72C152.44 274.699 152.493 274.688 152.6 274.688C152.707 274.688 153.011 274.725 153.512 274.8C154.024 274.875 154.28 274.955 154.28 275.04C154.28 275.093 154.2 275.168 154.04 275.264C153.88 275.349 153.8 275.445 153.8 275.552V277.2H155.4L156.264 276.192L157.64 277.408C157.64 277.525 157.512 277.584 157.256 277.584H153.8V279.856H156.264C156.275 279.856 156.301 279.845 156.344 279.824L157.144 278.848C158.061 279.637 158.52 280.037 158.52 280.048C158.52 280.176 158.392 280.24 158.136 280.24H155.592V282.32H156.456L157.224 281.456C158.045 282.096 158.456 282.475 158.456 282.592C158.456 282.677 158.328 282.72 158.072 282.72H155.592V287.808C155.603 288.619 155.064 289.024 153.976 289.024L153.352 288.528C152.84 288.123 152.019 287.899 150.888 287.856C150.739 287.792 150.664 287.728 150.664 287.664C150.664 287.589 150.728 287.509 150.856 287.424L153.576 287.68C154.067 287.659 154.312 287.541 154.312 287.328V282.72H149.72L148.872 282.832L148.424 282.128L150.248 282.32H154.312V280.24H149.816ZM148.312 285.6L148.408 286.528C148.376 286.741 148.008 286.848 147.304 286.848C147.112 286.848 147.016 286.709 147.016 286.432C147.016 286.336 147.027 286.224 147.048 286.096H145.08C145.123 286.501 145.144 286.976 145.144 287.52V287.68C145.112 287.893 144.744 288 144.04 288C144.029 288.011 144.019 288.016 144.008 288.016C143.955 288.016 143.864 287.883 143.736 287.616L143.8 285.6V276.416L143.72 275.712V275.648C143.72 275.616 143.731 275.6 143.752 275.6H143.816L145.4 276.256H146.888L147.56 275.408C148.403 275.835 148.861 276.229 148.936 276.592L148.312 277.152V285.6ZM145.064 280.672H147.064V277.088C147.064 276.939 147.032 276.821 146.968 276.736H145.064V280.672ZM145.064 285.632H147.064V281.12H145.064V285.632Z" fill="#333333"/>
</svg>
