<svg width="25" height="144" viewBox="0 0 25 144" fill="none" xmlns="http://www.w3.org/2000/svg">
<path d="M9.728 40.432C11.2 39.632 12.4693 39.232 13.536 39.232C14.6133 39.232 15.4293 39.3867 15.984 39.696C17.0507 40.272 17.584 41.12 17.584 42.24C17.584 43.1467 17.216 43.984 16.48 44.752C15.7547 45.52 14.928 45.904 14 45.904C13.072 45.904 12.2187 45.5147 11.44 44.736C11.3333 44.6293 11.28 44.5227 11.28 44.416V44.4C11.28 44.1973 11.3813 44.096 11.584 44.096C11.648 44.096 11.7547 44.16 11.904 44.288C12.4587 44.768 13.056 45.008 13.696 45.008C14.3467 45.008 14.9333 44.7307 15.456 44.176C15.9787 43.6107 16.24 42.9707 16.24 42.256C16.24 41.5307 16.032 40.9973 15.616 40.656C15.2 40.3147 14.5493 40.144 13.664 40.144C12.3413 40.144 11.04 40.544 9.76 41.344C9.792 42.4213 9.86667 43.616 9.984 44.928L9.824 45.376C9.536 45.9307 9.19467 46.208 8.8 46.208C8.62933 46.208 8.51733 46.1547 8.464 46.048C8.41067 45.952 8.34133 45.7707 8.256 45.504C8.17067 45.184 7.85067 44.864 7.296 44.544L6.688 44.192L6.48 44.576L6.32 44.624C6.17067 44.624 6.02667 44.5333 5.888 44.352L5.584 43.84L5.456 43.424C5.44533 43.3493 5.44 43.2907 5.44 43.248C5.44 43.088 5.49867 43.008 5.616 43.008H5.632C5.70667 43.008 5.792 43.0347 5.888 43.088C5.984 43.1413 6.08533 43.168 6.192 43.168C6.29867 43.168 6.496 43.0613 6.784 42.848C7.22133 42.4747 7.86133 41.8987 8.704 41.12C8.736 40.1067 8.77333 38.912 8.816 37.536L7.472 38.048C7.01333 38.0373 6.65067 37.84 6.384 37.456C6.08533 37.072 5.936 36.7893 5.936 36.608C5.936 36.416 6 36.32 6.128 36.32C6.20267 36.32 6.27733 36.384 6.352 36.512C6.43733 36.64 6.53333 36.7733 6.64 36.912C6.75733 37.04 6.90667 37.104 7.088 37.104C7.28 37.104 7.86667 36.944 8.848 36.624C8.912 35.8347 8.944 35.28 8.944 34.96C8.944 34.6293 8.88533 34.3733 8.768 34.192C8.65067 34.0107 8.47467 33.8507 8.24 33.712C8.016 33.5627 7.904 33.4453 7.904 33.36V33.344C7.904 33.216 7.98933 33.1467 8.16 33.136C8.46933 33.1467 8.88533 33.2747 9.408 33.52C9.93067 33.7547 10.2187 33.9413 10.272 34.08C10.3253 34.208 10.3307 34.3253 10.288 34.432L9.984 35.184L9.872 36.304L10.944 35.936C11.04 35.9253 11.1467 35.8773 11.264 35.792L11.584 35.552C11.8293 35.3493 12.0053 35.2427 12.112 35.232C12.2187 35.2213 12.3947 35.216 12.64 35.216C12.8853 35.216 13.1093 35.2853 13.312 35.424C13.5147 35.552 13.616 35.6693 13.616 35.776C13.616 36.0107 13.4613 36.1867 13.152 36.304L9.856 37.184L9.728 40.432ZM7.088 43.76C7.58933 44.1333 7.87733 44.336 7.952 44.368L8.72 44.656C8.72 43.8667 8.71467 42.9973 8.704 42.048C8.17067 42.6133 7.632 43.184 7.088 43.76ZM15.088 35.216C17.456 36.048 18.64 37.0773 18.64 38.304C18.64 38.6027 18.5227 38.8 18.288 38.896C18.256 38.9067 18.2187 38.912 18.176 38.912C17.952 38.912 17.6533 38.7413 17.28 38.4V38.384C16.6507 37.9147 15.952 37.68 15.184 37.68C14.9387 37.6693 14.8 37.6587 14.768 37.648C14.6613 37.6267 14.608 37.568 14.608 37.472C14.608 37.3653 14.6667 37.3067 14.784 37.296C14.912 37.2853 15.1787 37.28 15.584 37.28C15.9893 37.28 16.48 37.344 17.056 37.472C16.9493 37.1733 16.8053 36.9333 16.624 36.752C16.4427 36.5707 16.2133 36.4053 15.936 36.256C15.6587 36.1067 15.3707 35.9573 15.072 35.808C14.784 35.6587 14.6133 35.568 14.56 35.536C14.5067 35.504 14.48 35.4453 14.48 35.36C14.48 35.1787 14.56 35.088 14.72 35.088C14.816 35.088 14.9387 35.1307 15.088 35.216ZM14.176 54.488H17.52V53.032C17.52 52.936 17.488 52.8453 17.424 52.76H14.176V54.488ZM14.176 54.904V56.744H17.52V54.904H14.176ZM9.792 54.488V53.032C9.792 52.936 9.76 52.8453 9.696 52.76H6.48V54.488H9.792ZM5.248 51.704L6.816 52.36H9.328C9.46667 52.296 9.648 52.1413 9.872 51.896C10.096 51.64 10.2347 51.512 10.288 51.512C10.352 51.512 10.576 51.6667 10.96 51.976C11.344 52.2853 11.536 52.5307 11.536 52.712L11.072 53.336V56.344L11.168 57.48C11.136 57.6933 10.7573 57.8 10.032 57.8C9.95733 57.8 9.888 57.7627 9.824 57.688C9.76 57.6133 9.728 57.5387 9.728 57.464C9.728 57.3787 9.744 57.2827 9.776 57.176H6.48V64.312C6.544 65.0587 6.576 65.5013 6.576 65.64C6.576 65.896 6.18667 66.024 5.408 66.024C5.344 66.024 5.25333 65.8907 5.136 65.624L5.216 64.312V52.52L5.136 51.8C5.12533 51.736 5.14667 51.704 5.2 51.704H5.248ZM6.48 56.76H9.792V54.904H6.48V56.76ZM17.536 57.176H14.192L14.256 57.528C14.224 57.7413 13.8613 57.848 13.168 57.848C13.0933 57.848 13.0187 57.8107 12.944 57.736C12.88 57.6507 12.8533 57.5333 12.864 57.384C12.8747 57.224 12.8907 57.0587 12.912 56.888V52.52L12.832 51.8C12.8213 51.736 12.8427 51.704 12.896 51.704C12.96 51.704 13.2053 51.8 13.632 51.992C14.0587 52.184 14.352 52.3067 14.512 52.36H17.056C17.0773 52.36 17.0933 52.3547 17.104 52.344L18.064 51.512C18.9387 52.0453 19.376 52.424 19.376 52.648L18.816 53.368V64.92C18.816 65.1547 18.688 65.3947 18.432 65.64C18.176 65.896 17.8987 66.024 17.6 66.024C17.4933 66.024 17.392 65.9813 17.296 65.896C16.4533 65.1387 15.4613 64.7387 14.32 64.696C14.1707 64.664 14.096 64.6 14.096 64.504C14.096 64.3973 14.16 64.344 14.288 64.344L17.216 64.6C17.4293 64.6 17.536 64.5147 17.536 64.344V57.176ZM14.112 63.624C13.9307 63.624 13.84 63.4907 13.84 63.224C13.84 63.1493 13.8453 63.064 13.856 62.968H10.144C10.1653 63.2667 10.1867 63.5707 10.208 63.88C10.176 64.0933 9.79733 64.2 9.072 64.2C8.86933 64.2 8.768 64.0667 8.768 63.8L8.832 62.408V59.48L8.752 58.76V58.696C8.752 58.6747 8.77867 58.664 8.832 58.664C8.88533 58.664 9.12533 58.744 9.552 58.904C9.97867 59.0533 10.272 59.1547 10.432 59.208H13.408L14.384 58.36C15.3013 59.0213 15.7547 59.4533 15.744 59.656L15.152 60.36V62.232L15.248 63.304C15.216 63.5173 14.8373 63.624 14.112 63.624ZM10.112 59.64V62.568H13.872V59.992C13.872 59.8427 13.84 59.7253 13.776 59.64H10.112ZM15.456 79.232L15.088 79.264C14.928 79.2427 14.8373 79.2 14.816 79.136L14.8 79.12C14.8427 79.1093 14.8747 79.0507 14.896 78.944C14.9067 78.8373 15.152 78.784 15.632 78.784C16.112 78.784 16.608 78.8 17.12 78.832C17.12 78.7893 17.12 78.7467 17.12 78.704C17.12 78.032 16.8907 77.2427 16.432 76.336C16.0373 75.6 15.2533 74.848 14.08 74.08C13.9733 74.0053 13.92 73.9413 13.92 73.888C13.92 73.8347 13.952 73.7653 14.016 73.68C14.08 73.584 14.1547 73.536 14.24 73.536C14.3253 73.536 14.4373 73.5787 14.576 73.664C15.8667 74.432 16.832 75.2693 17.472 76.176C18.3253 77.712 18.752 78.8587 18.752 79.616C18.752 79.6587 18.7467 79.728 18.736 79.824C18.736 79.92 18.6507 80.0853 18.48 80.32C18.32 80.5547 18.1067 80.6827 17.84 80.704C17.5627 80.704 17.3547 80.4213 17.216 79.856C17.2587 79.4933 16.672 79.2853 15.456 79.232ZM7.824 75.376C7.81333 76.9333 7.808 77.9787 7.808 78.512C7.808 79.7707 8.29333 80.7893 9.264 81.568C9.94667 79.9147 10.5173 78.736 10.976 78.032C11.168 77.7333 11.3227 77.5787 11.44 77.568C11.568 77.5573 11.632 77.6213 11.632 77.76C11.632 77.888 11.536 78.1547 11.344 78.56C10.5653 80.224 10.1867 81.344 10.208 81.92V81.952L10.464 82.48C10.6347 82.832 10.7253 83.0667 10.736 83.184C10.7467 83.2907 10.6827 83.4027 10.544 83.52C10.4053 83.6267 10.2613 83.6853 10.112 83.696C9.71733 83.696 9.328 83.5467 8.944 83.248C7.57867 82.1173 6.86933 80.1333 6.816 77.296C6.79467 76.4747 6.77333 75.648 6.752 74.816L6.72 74.672C6.656 74.16 6.464 73.776 6.144 73.52C5.888 73.296 5.76 73.1467 5.76 73.072C5.77067 72.9013 5.94667 72.816 6.288 72.816C6.62933 72.816 7.03467 73.0507 7.504 73.52C7.76 73.8187 7.888 74.1173 7.888 74.416L7.824 75.376ZM9.264 95.256H13.92L14.912 94.328L16.432 95.64C16.432 95.768 16.3413 95.832 16.16 95.832H8.96L8.016 95.944L7.296 95.064L9.264 95.256ZM5.216 95.96C5.04533 95.96 4.96 95.8693 4.96 95.688C4.96 95.6027 5.008 95.5387 5.104 95.496C7.696 94.2907 9.76533 92.4027 11.312 89.832C12.816 89.992 13.5627 90.1573 13.552 90.328L12.448 90.872C14.816 92.9413 17.0667 94.1893 19.2 94.616C18.7947 95.0427 18.4427 95.5333 18.144 96.088C16.224 95.192 14.1813 93.5653 12.016 91.208C9.76533 93.544 7.57333 95.112 5.44 95.912C5.35467 95.944 5.28 95.96 5.216 95.96ZM15.472 104.024C15.28 104.024 15.184 103.853 15.184 103.512C15.184 103.181 15.1947 102.899 15.216 102.664H8.736C8.77867 102.845 8.8 103.192 8.8 103.704C8.768 103.917 8.38933 104.024 7.664 104.024C7.46133 104.024 7.36 103.891 7.36 103.624L7.424 102.392V98.488L7.344 97.768C7.344 97.7573 7.344 97.7413 7.344 97.72C7.344 97.688 7.37067 97.672 7.424 97.672C7.47733 97.672 7.71733 97.752 8.144 97.912C8.57067 98.0613 8.864 98.1627 9.024 98.216H14.768C14.9067 98.152 15.088 97.9973 15.312 97.752C15.536 97.496 15.6747 97.368 15.728 97.368C15.792 97.368 16.0373 97.5387 16.464 97.88C16.8907 98.2213 17.104 98.4827 17.104 98.664C17.104 98.7173 17.0027 98.824 16.8 98.984C16.608 99.144 16.512 99.272 16.512 99.368V102.392L16.608 103.704C16.576 103.917 16.1973 104.024 15.472 104.024ZM15.232 99C15.232 98.8507 15.2 98.7333 15.136 98.648H8.704V102.264H15.232V99ZM6.688 120.768C6.22933 120.768 6 120.464 6 119.856C6 119.515 6.10133 119.232 6.304 119.008L7.488 117.728L9.088 115.408L9.136 113.792C8.56 114.304 8.08 114.56 7.696 114.56C7.32267 114.56 7.04533 114.475 6.864 114.304C6.24533 113.728 5.89867 113.221 5.824 112.784C5.83467 112.645 5.90933 112.576 6.048 112.576C6.112 112.576 6.17067 112.603 6.224 112.656C6.27733 112.699 6.42133 112.832 6.656 113.056C6.90133 113.269 7.14667 113.376 7.392 113.376H7.456C7.91467 113.376 8.47467 113.2 9.136 112.848C9.136 112.624 9.136 112.347 9.136 112.016C9.136 111.685 9.12533 111.317 9.104 110.912C9.08267 110.496 8.912 110.117 8.592 109.776C8.45333 109.595 8.384 109.472 8.384 109.408C8.39467 109.248 8.47467 109.168 8.624 109.168C8.784 109.168 9.04533 109.237 9.408 109.376C10.2933 109.739 10.736 110.123 10.736 110.528C10.736 110.635 10.6667 110.795 10.528 111.008C10.4 111.221 10.3253 111.467 10.304 111.744C10.2933 112.021 10.2613 112.293 10.208 112.56C10.2507 112.485 10.6027 112.347 11.264 112.144C11.456 112.24 11.552 112.389 11.552 112.592C11.552 112.795 11.4453 112.976 11.232 113.136L10.112 113.968C10.048 114.395 10 114.805 9.968 115.2C11.504 113.877 12.9387 113.168 14.272 113.072C16.9173 113.072 18.24 114.32 18.24 116.816C18.24 118.917 17.2427 120.459 15.248 121.44C14.48 121.824 13.76 122.059 13.088 122.144C12.9173 122.165 12.832 122.117 12.832 122C12.832 121.851 13.0667 121.685 13.536 121.504C15.8613 120.587 17.024 119.056 17.024 116.912C17.024 115.003 16.08 114.048 14.192 114.048C12.8907 114.048 11.5147 114.827 10.064 116.384V119.536C10.192 120.315 10.256 120.853 10.256 121.152C10.256 121.451 10.1653 121.707 9.984 121.92C9.64267 122.336 9.376 122.544 9.184 122.544C8.992 122.544 8.87467 122.443 8.832 122.24C8.81067 122.155 8.8 121.984 8.8 121.728C8.8 121.472 8.85867 120.981 8.976 120.256L9.024 117.568L7.808 119.472C7.328 120.336 6.97067 120.768 6.736 120.768C6.71467 120.768 6.69867 120.768 6.688 120.768ZM9.856 132.824L14.048 132.056C14.0373 130.84 14.016 130.051 13.984 129.688C13.9307 129.443 13.76 129.251 13.472 129.112C13.1947 128.963 13.04 128.861 13.008 128.808C12.9867 128.755 12.976 128.707 12.976 128.664C12.976 128.515 13.0667 128.44 13.248 128.44C13.4293 128.44 13.6693 128.488 13.968 128.584C15.024 128.915 15.552 129.24 15.552 129.56C15.552 129.709 15.52 129.853 15.456 129.992C15.392 130.12 15.3547 130.381 15.344 130.776C15.3333 131.171 15.3227 131.517 15.312 131.816C15.568 131.752 15.7973 131.699 16 131.656C16.2133 131.613 16.4267 131.544 16.64 131.448C16.8533 131.341 17.0667 131.288 17.28 131.288C17.6853 131.288 18.112 131.469 18.56 131.832C18.7947 132.024 18.912 132.195 18.912 132.344C18.912 132.568 18.7253 132.68 18.352 132.68L16.096 132.584C15.8293 132.627 15.5573 132.669 15.28 132.712C15.1947 134.728 15.152 135.859 15.152 136.104C15.152 136.349 15.0773 136.595 14.928 136.84C14.6507 137.309 14.3253 137.544 13.952 137.544C13.8453 137.544 13.7493 137.48 13.664 137.352C13.5787 137.224 13.4773 137.043 13.36 136.808C13.2 136.552 12.6667 136.365 11.76 136.248C11.3013 136.184 11.072 136.051 11.072 135.848C11.072 135.795 11.0987 135.736 11.152 135.672C11.216 135.597 11.296 135.56 11.392 135.56C11.488 135.56 11.76 135.608 12.208 135.704C12.6667 135.8 13.04 135.848 13.328 135.848C13.6267 135.848 13.8187 135.784 13.904 135.656C13.9893 135.517 14.032 135.347 14.032 135.144V135.128C14.0427 134.371 14.048 133.619 14.048 132.872C12.832 133 11.4347 133.288 9.856 133.736C9.84533 135.539 9.84 136.675 9.84 137.144V137.16C9.84 137.736 9.86667 138.136 9.92 138.36C9.99467 138.733 10.2027 139.016 10.544 139.208C11.024 139.475 11.552 139.608 12.128 139.608C13.376 139.608 14.3093 139.469 14.928 139.192C15.1947 139.075 15.4827 139.016 15.792 139.016C16.112 139.016 16.4427 139.149 16.784 139.416C17.1253 139.672 17.296 139.864 17.296 139.992C17.296 140.109 17.232 140.205 17.104 140.28C16.7733 140.44 16.1547 140.557 15.248 140.632C14.3413 140.707 13.5147 140.744 12.768 140.744C10.8907 140.744 9.76 140.483 9.376 139.96C9.07733 139.565 8.896 139.048 8.832 138.408C8.768 137.768 8.71467 136.456 8.672 134.472L8.656 134.104L7.584 134.376C7.456 134.408 7.28533 134.467 7.072 134.552C6.86933 134.627 6.72533 134.664 6.64 134.664C6.352 134.664 6.08533 134.552 5.84 134.328C5.59467 134.104 5.42933 133.859 5.344 133.592C5.17333 133.005 5.088 132.675 5.088 132.6C5.088 132.408 5.168 132.312 5.328 132.312C5.424 132.312 5.488 132.333 5.52 132.376C5.552 132.419 5.648 132.584 5.808 132.872C5.97867 133.149 6.18667 133.325 6.432 133.4C7.40267 133.293 8.12267 133.187 8.592 133.08L8.448 130.056C8.416 129.747 8.23467 129.533 7.904 129.416C7.68 129.341 7.54667 129.293 7.504 129.272C7.46133 129.24 7.44 129.187 7.44 129.112C7.44 128.92 7.54667 128.824 7.76 128.824C7.97333 128.824 8.22933 128.872 8.528 128.968C9.28533 129.224 9.74933 129.469 9.92 129.704C9.984 129.789 10.016 129.896 10.016 130.024C10.016 130.152 9.98933 130.275 9.936 130.392C9.89333 130.509 9.872 130.707 9.872 130.984L9.856 132.408V132.824Z" fill="#333333"/>
<path d="M0 6.25C0 4.52393 1.39893 3.125 3.125 3.125H21.875C23.5986 3.125 25 4.52393 25 6.25V18.75C25 20.4736 23.5986 21.875 21.875 21.875H3.125C1.39893 21.875 0 20.4736 0 18.75V6.25ZM2.34375 6.25V7.3291L10.7666 14.2432C11.7725 15.0732 13.2275 15.0732 14.2334 14.2432L22.6562 7.3291V6.20605C22.6562 5.82031 22.3047 5.4248 21.875 5.4248H3.125C2.69336 5.4248 2.34375 5.82031 2.34375 6.20605V6.25ZM2.34375 10.3613V18.75C2.34375 19.1797 2.69336 19.5312 3.125 19.5312H21.875C22.3047 19.5312 22.6562 19.1797 22.6562 18.75V10.3613L15.7227 16.0547C13.8477 17.5928 11.1523 17.5928 9.2334 16.0547L2.34375 10.3613Z" fill="#333333"/>
</svg>
