<svg width="26" height="30" viewBox="0 0 26 30" fill="none" xmlns="http://www.w3.org/2000/svg">
<path d="M13 5.163C16.204 5.163 16.584 5.175 17.85 5.233C21.102 5.381 22.621 6.924 22.769 10.152C22.827 11.417 22.838 11.797 22.838 15.001C22.838 18.206 22.826 18.585 22.769 19.85C22.62 23.075 21.105 24.621 17.85 24.769C16.584 24.827 16.206 24.839 13 24.839C9.796 24.839 9.416 24.827 8.151 24.769C4.891 24.62 3.38 23.07 3.232 19.849C3.174 18.584 3.162 18.205 3.162 15C3.162 11.796 3.175 11.417 3.232 10.151C3.381 6.924 4.896 5.38 8.151 5.232C9.417 5.175 9.796 5.163 13 5.163ZM13 3C9.741 3 9.333 3.014 8.053 3.072C3.695 3.272 1.273 5.69 1.073 10.052C1.014 11.333 1 11.741 1 15C1 18.259 1.014 18.668 1.072 19.948C1.272 24.306 3.69 26.728 8.052 26.928C9.333 26.986 9.741 27 13 27C16.259 27 16.668 26.986 17.948 26.928C22.302 26.728 24.73 24.31 24.927 19.948C24.986 18.668 25 18.259 25 15C25 11.741 24.986 11.333 24.928 10.053C24.732 5.699 22.311 3.273 17.949 3.073C16.668 3.014 16.259 3 13 3ZM13 8.838C12.1908 8.838 11.3895 8.99739 10.6419 9.30705C9.8943 9.61672 9.215 10.0706 8.64281 10.6428C8.07061 11.215 7.61672 11.8943 7.30705 12.6419C6.99738 13.3895 6.838 14.1908 6.838 15C6.838 15.8092 6.99738 16.6105 7.30705 17.3581C7.61672 18.1057 8.07061 18.785 8.64281 19.3572C9.215 19.9294 9.8943 20.3833 10.6419 20.6929C11.3895 21.0026 12.1908 21.162 13 21.162C14.6343 21.162 16.2016 20.5128 17.3572 19.3572C18.5128 18.2016 19.162 16.6343 19.162 15C19.162 13.3657 18.5128 11.7984 17.3572 10.6428C16.2016 9.48721 14.6343 8.838 13 8.838ZM13 19C11.9391 19 10.9217 18.5786 10.1716 17.8284C9.42143 17.0783 9 16.0609 9 15C9 13.9391 9.42143 12.9217 10.1716 12.1716C10.9217 11.4214 11.9391 11 13 11C14.0609 11 15.0783 11.4214 15.8284 12.1716C16.5786 12.9217 17 13.9391 17 15C17 16.0609 16.5786 17.0783 15.8284 17.8284C15.0783 18.5786 14.0609 19 13 19ZM19.406 7.155C19.024 7.155 18.6576 7.30677 18.3874 7.57691C18.1173 7.84706 17.9655 8.21346 17.9655 8.5955C17.9655 8.97754 18.1173 9.34394 18.3874 9.61409C18.6576 9.88423 19.024 10.036 19.406 10.036C19.788 10.036 20.1544 9.88423 20.4246 9.61409C20.6947 9.34394 20.8465 8.97754 20.8465 8.5955C20.8465 8.21346 20.6947 7.84706 20.4246 7.57691C20.1544 7.30677 19.788 7.155 19.406 7.155Z" fill="#979797"/>
</svg>
